<?xml version="1.0" encoding="utf-8"?>
<!-- Generator: Adobe Illustrator 25.3.1, SVG Export Plug-In . SVG Version: 6.00 Build 0)  -->
<svg version="1.1" id="Layer_1" xmlns="http://www.w3.org/2000/svg" xmlns:xlink="http://www.w3.org/1999/xlink" x="0px" y="0px"
	 viewBox="0 0 249.591 254.061" enable-background="new 0 0 249.591 254.061" xml:space="preserve">
<g>
	<path fill="#DA1437" d="M13.046,213.026c0-57.33,0-114.66,0-171.99c0.553-2.169,0.32-4.498,1.122-6.592
		c3.324-8.679,9.353-14.73,18.042-18.037c2.23-0.849,4.701-0.631,7.027-1.125c57.039,0,114.078,0,171.117,0
		c2.812,0.593,5.758,0.428,8.464,1.642c7.947,3.566,13.492,9.415,16.601,17.523c0.854,2.228,0.632,4.701,1.127,7.027
		c0,57.184,0,114.369,0,171.553c-0.553,2.169-0.315,4.5-1.123,6.591c-3.345,8.657-9.353,14.731-18.042,18.038
		c-2.23,0.849-4.701,0.631-7.027,1.125c-57.184,0-114.369,0-171.553,0c-2.234-0.583-4.617-0.371-6.798-1.189
		c-6.405-2.403-11.23-6.714-15.084-12.305C14.345,221.553,13.612,217.34,13.046,213.026z"/>
	<path fill="#FEFEFE" d="M132.093,114.121c7.278-9.866,17.363-12.395,28.539-12.24c8.345,0.116,16.169,1.969,22.437,7.983
		c5.885,5.647,8.425,12.925,9.8,20.71c0.938,5.309,1.281,10.681,1.291,16.068c0.027,14.911,0.028,29.822,0.03,44.733
		c0,4.021-1.497,5.493-5.562,5.497c-6.401,0.007-12.802,0.007-19.202,0c-3.978-0.005-5.478-1.432-5.48-5.322
		c-0.008-13.456,0.006-26.912,0.028-40.368c0.008-4.809-0.09-9.604-1.681-14.216c-1.804-5.23-5.243-8.679-10.869-9.478
		c-6.243-0.886-11.57,0.741-15.214,6.218c-2.989,4.493-4.177,9.564-4.196,14.891c-0.049,14.038-0.014,28.076-0.018,42.114
		c-0.001,4.905-1.274,6.162-6.211,6.162c-6.037,0.001-12.074,0.013-18.111-0.005c-3.477-0.011-5.131-1.615-5.132-5.034
		c-0.012-27.858-0.012-55.716,0.001-83.574c0.002-3.349,1.585-4.921,4.97-4.937c6.473-0.032,12.947-0.028,19.42-0.003
		c3.601,0.014,5.106,1.564,5.157,5.231C132.114,110.408,132.093,112.265,132.093,114.121z"/>
	<path fill="#FEFEFE" d="M59.739,150.009c0-13.6-0.003-27.199,0.002-40.799c0.002-4.316,1.587-5.921,5.911-5.937
		c5.963-0.021,11.927-0.029,17.89,0.003c4.025,0.022,5.702,1.688,5.704,5.728c0.016,27.344,0.016,54.689,0.002,82.033
		c-0.002,4.143-1.72,5.826-5.826,5.833c-6.036,0.01-12.072,0.015-18.108-0.002c-3.842-0.011-5.567-1.75-5.57-5.626
		C59.733,177.499,59.739,163.754,59.739,150.009z"/>
	<path fill="#FEFEFE" d="M93.517,76.236c0.053,10.389-8.348,18.905-18.746,19.003c-10.641,0.1-19.262-8.329-19.332-18.904
		c-0.07-10.424,8.504-19.108,18.902-19.144C84.982,57.153,93.463,65.576,93.517,76.236z"/>
</g>
</svg>
