<?xml version="1.0" encoding="utf-8"?>
<!-- Generator: Adobe Illustrator 25.3.1, SVG Export Plug-In . SVG Version: 6.00 Build 0)  -->
<svg version="1.1" id="Layer_1" xmlns="http://www.w3.org/2000/svg" xmlns:xlink="http://www.w3.org/1999/xlink" x="0px" y="0px"
	 viewBox="0 0 249.591 254.061" enable-background="new 0 0 249.591 254.061" xml:space="preserve">
<g display="none">
	<path display="inline" fill="#DA1437" d="M13.083,193.45c0-34.262,0-68.524,0-102.786c1.001-0.594,1.639,0.2,2.322,0.655
		c29.397,19.632,58.841,39.193,88.221,58.849c5.9,3.947,12.131,6.893,19.322,7.217c5.058,0.228,9.975-0.63,14.628-2.706
		c2.724-1.216,5.276-2.751,7.755-4.405c29.349-19.573,58.714-39.122,88.051-58.713c0.422-0.282,0.824-0.6,1.284-0.819
		c1.071-0.512,1.673-0.271,1.623,1.024c-0.022,0.58-0.003,1.161-0.003,1.742c0,32.156-0.202,64.314,0.102,96.467
		c0.117,12.324-9.426,21.051-21.015,21.496c-0.508,0.019-1.016,0.013-1.524,0.013c-59.666,0.001-119.332,0.019-178.998-0.021
		c-8.542-0.006-15.247-3.539-19.741-11C13.79,198.272,13.551,195.846,13.083,193.45z"/>
	<path display="inline" fill="#DA1437" d="M13.083,61.047c0.495-1.481,0.875-3.014,1.505-4.435
		c3.525-7.953,9.675-12.222,18.343-12.869c0.578-0.043,1.161-0.037,1.741-0.037c59.953-0.001,119.906-0.01,179.859,0.005
		c12.55,0.003,21.879,9.162,21.5,21.223c-0.224,7.131-3.759,12.416-9.66,16.329c-17.993,11.934-35.937,23.942-53.902,35.918
		c-11.635,7.757-23.271,15.513-34.911,23.261c-9.176,6.108-16.802,6.086-26.001-0.047C82.98,121.345,54.458,102.211,25.78,83.312
		c-6.169-4.066-11.185-8.636-12.697-16.167C13.083,65.112,13.083,63.08,13.083,61.047z"/>
</g>
<g>
	<path fill="#DA1437" d="M13.088,117.669c1.075-2.321,0.808-4.877,1.255-7.31c0.615-3.347,1.226-6.689,1.995-10.005
		c0.241-1.038,0.567-1.555,1.81-1.552c21.47,0.045,42.94,0.051,64.409-0.007c1.594-0.004,1.534,0.708,1.445,1.826
		c-0.995,12.451-1.038,24.925-0.767,37.4c0.115,5.29,0.448,10.577,0.789,15.859c0.091,1.402-0.209,1.824-1.686,1.821
		c-21.325-0.049-42.649-0.051-63.974,0.005c-1.421,0.004-1.823-0.568-2.101-1.764c-1.218-5.227-2.083-10.51-2.695-15.839
		c-0.051-0.442,0.237-1.062-0.48-1.271c0-0.581,0-1.161,0-1.742c0.294-0.271,0.204-0.631,0.225-0.966c0-0.259,0-0.519,0-0.778
		c0-0.259,0-0.518,0-0.777c-0.019-0.334,0.069-0.693-0.224-0.963c0-2.903,0-5.807,0-8.71c0.294-0.271,0.204-0.631,0.225-0.966
		c0-0.259,0-0.519,0-0.778c0-0.259,0-0.518,0-0.777c-0.019-0.334,0.069-0.693-0.224-0.963
		C13.088,118.83,13.088,118.25,13.088,117.669z"/>
	<path fill="#DA1437" d="M123.27,238.738c-5.056-2.689-7.841-7.346-10.304-12.185c-5.258-10.332-8.197-21.442-10.604-32.71
		c-1.635-7.654-2.759-15.39-3.805-23.142c-0.197-1.459-0.034-2.014,1.652-2.007c16.245,0.063,32.49,0.043,48.735,0.026
		c1.11-0.001,1.926-0.089,1.71,1.55c-2.146,16.316-4.947,32.478-10.794,47.958c-1.716,4.542-3.741,8.933-6.377,13.026
		c-1.974,3.065-4.307,5.761-7.6,7.484C125.012,238.738,124.141,238.738,123.27,238.738z"/>
	<path fill="#DA1437" d="M13.088,119.411c0.542,0.106,0.414,0.495,0.362,0.853c-0.11,0.218-0.231,0.214-0.362,0.018
		C13.088,119.992,13.088,119.701,13.088,119.411z"/>
	<path fill="#DA1437" d="M13.088,120.282c0.12-0.016,0.241-0.022,0.362-0.018c0.001,0.29,0.002,0.58,0.003,0.87
		c-0.111,0.215-0.232,0.221-0.365,0.019C13.088,120.863,13.088,120.572,13.088,120.282z"/>
	<path fill="#DA1437" d="M13.088,121.153c0.121-0.01,0.243-0.016,0.365-0.019c0.003,0.289,0.005,0.578,0.008,0.867
		c-0.111,0.223-0.235,0.221-0.373,0.024C13.088,121.734,13.088,121.443,13.088,121.153z"/>
	<path fill="#DA1437" d="M13.088,122.024c0.124-0.006,0.249-0.014,0.373-0.024c0.065,0.377,0.02,0.708-0.373,0.895
		C13.088,122.605,13.088,122.314,13.088,122.024z"/>
	<path fill="#DA1437" d="M13.088,131.605c0.392,0.187,0.432,0.52,0.372,0.894c-0.135,0.167-0.26,0.168-0.372-0.023
		C13.088,132.186,13.088,131.895,13.088,131.605z"/>
	<path fill="#DA1437" d="M13.088,132.476c0.124,0.006,0.249,0.014,0.372,0.023c-0.003,0.289-0.005,0.578-0.008,0.867
		c-0.131,0.179-0.252,0.164-0.365-0.019C13.088,133.057,13.088,132.766,13.088,132.476z"/>
	<path fill="#DA1437" d="M13.088,133.347c0.121,0.01,0.243,0.016,0.365,0.019c-0.001,0.29-0.001,0.58-0.001,0.87
		c-0.13,0.172-0.251,0.175-0.363-0.018C13.088,133.928,13.088,133.637,13.088,133.347z"/>
	<path fill="#DA1437" d="M13.088,134.218c0.121,0.007,0.242,0.013,0.364,0.018c0.056,0.36,0.189,0.753-0.364,0.853
		C13.088,134.799,13.088,134.508,13.088,134.218z"/>
	<path fill="#DA1437" d="M198.591,155.666c-10.516,0-21.032-0.041-31.547,0.042c-1.665,0.013-2.028-0.399-1.91-2.035
		c1.267-17.602,1.26-35.212,0.008-52.815c-0.112-1.57,0.143-2.074,1.872-2.069c21.177,0.068,42.354,0.067,63.53-0.001
		c1.591-0.005,2.067,0.546,2.399,1.956c4.156,17.666,4.147,35.314,0.015,52.984c-0.37,1.581-1.038,1.986-2.602,1.976
		C219.768,155.632,209.179,155.666,198.591,155.666z"/>
	<path fill="#DA1437" d="M124.566,155.666c-8.559,0-17.118-0.035-25.677,0.035c-1.412,0.011-1.757-0.39-1.85-1.775
		c-1.199-17.83-1.192-35.653,0.004-53.482c0.09-1.348,0.463-1.644,1.758-1.64c17.19,0.045,34.381,0.046,51.571-0.002
		c1.331-0.004,1.647,0.348,1.735,1.663c1.196,17.829,1.199,35.652,0.006,53.482c-0.095,1.421-0.494,1.762-1.871,1.752
		C141.684,155.635,133.125,155.666,124.566,155.666z"/>
	<path fill="#DA1437" d="M145.522,17.804c5.322,0.844,10.132,2.146,14.82,3.81c31.215,11.081,53.459,31.862,66.96,62.079
		c0.774,1.733,0.485,2.118-1.417,2.112c-19.945-0.06-39.89-0.05-59.835-0.011c-1.513,0.003-2.193-0.173-2.408-2.006
		c-2.09-17.863-5.21-35.513-11.629-52.421C150.272,26.782,148.177,22.355,145.522,17.804z"/>
	<path fill="#DA1437" d="M103.599,17.819c-5.606,9.713-9.018,19.817-11.719,30.197c-3.07,11.798-5.018,23.796-6.404,35.89
		c-0.169,1.478-0.574,1.899-2.06,1.895c-20.09-0.049-40.179-0.058-60.269,0.007c-1.894,0.006-2.013-0.448-1.326-2.022
		c10.645-24.396,27.703-42.868,51.17-55.398c9.047-4.831,18.655-8.166,28.692-10.263C102.171,18.024,102.668,17.967,103.599,17.819z
		"/>
	<path fill="#DA1437" d="M103.631,236.724c-8.499-1.56-16.24-3.908-23.63-7.244c-26.747-12.075-46.134-31.519-57.984-58.411
		c-1.024-2.325-1-2.337,1.594-2.337c19.799,0,39.599,0.02,59.398-0.037c1.669-0.005,2.287,0.291,2.506,2.142
		c2.101,17.787,5.197,35.366,11.592,52.206C98.852,227.636,100.952,232.063,103.631,236.724z"/>
	<path fill="#DA1437" d="M145.478,236.79c5.656-9.747,9.05-19.788,11.742-30.089c3.101-11.861,5.085-23.932,6.439-36.103
		c0.192-1.726,0.842-1.897,2.287-1.894c20.017,0.04,40.035,0.051,60.052-0.013c1.877-0.006,2.042,0.432,1.328,2.014
		c-15.263,33.82-40.708,55.606-76.684,64.962C149.115,236.065,147.556,236.342,145.478,236.79z"/>
	<path fill="#DA1437" d="M124.561,85.769c-8.128,0-16.257-0.016-24.385,0.018c-1.178,0.005-1.882-0.016-1.676-1.591
		c2.135-16.33,4.949-32.504,10.811-47.99c2.108-5.568,4.585-10.959,8.314-15.665c4.972-6.274,8.959-6.284,13.908,0.032
		c5.27,6.725,8.208,14.604,10.749,22.622c4.238,13.374,6.584,27.147,8.373,41.032c0.211,1.636-0.593,1.557-1.709,1.554
		C140.818,85.758,132.689,85.769,124.561,85.769z"/>
</g>
<g display="none">
	<path display="inline" fill="#DA1437" d="M13.088,61.485c1.051-2.297,0.958-4.852,1.654-7.246c1.388-4.77,3.697-8.932,7.226-12.439
		c6.436-6.395,12.944-12.722,19.235-19.258c9.181-9.538,23.407-8.406,31.956,0.032c9.919,9.789,19.753,19.664,29.569,29.557
		c8.942,9.013,9.057,22.346,0.331,30.653c-1.912,1.82-4.143,3.135-6.636,4.024c-6.145,2.189-10.854,6.002-13.48,12.106
		c-1.72,3.999-1.991,8.105-0.874,12.323c2.926,11.043,8.924,20.359,16.277,28.894c9.081,10.539,19.491,19.455,32.052,25.642
		c4.494,2.214,9.144,4.259,14.27,4.04c9.515-0.406,16.701-4.82,19.757-13.98c4.551-13.637,23.092-19.146,34.992-7.063
		c9.677,9.825,19.492,19.515,29.234,29.276c0.869,0.871,1.694,1.793,2.471,2.747c5.822,7.138,6.227,18.132,0.959,25.766
		c-1.154,1.673-2.431,3.236-3.884,4.676c-6.085,6.027-12.19,12.037-18.162,18.175c-5.246,5.392-11.562,8.327-19.01,8.945
		c-0.299,0.025-0.568,0.051-0.678,0.385c-2.613,0-5.226,0-7.839,0c-0.685-0.455-1.451-0.122-2.173-0.225
		c-8.061-0.012-15.572-2.52-22.984-5.274c-16.104-5.984-30.695-14.756-44.611-24.705c-9.922-7.093-19.274-14.881-28.229-23.173
		c-8.845-8.191-17.16-16.862-25.092-25.935c-9.578-10.957-18.148-22.64-25.766-35.016c-6.711-10.902-12.403-22.311-16.396-34.518
		c-2.191-6.696-3.663-13.533-4.168-20.568c0-0.726,0-1.452,0-2.178c0.32-0.295,0.196-0.686,0.225-1.044c0-0.465-0.001-0.931,0-1.396
		c-0.029-0.358,0.096-0.749-0.224-1.044C13.088,62.936,13.088,62.21,13.088,61.485z"/>
	<path display="inline" fill="#636363" d="M180.33,238.738c0.024-0.133,0.004-0.258-0.06-0.377c0.792-0.146,1.583-0.291,2.238,0.377
		C181.781,238.738,181.055,238.738,180.33,238.738z"/>
	<path display="inline" fill="#909090" d="M13.454,64.524c-0.002,0.587-0.003,1.173-0.005,1.76
		c-0.125,0.181-0.245,0.187-0.361-0.009c0-0.581,0-1.161,0-1.742C13.205,64.341,13.328,64.338,13.454,64.524z"/>
	<path display="inline" fill="#A2A2A2" d="M13.454,64.524c-0.122,0.002-0.244,0.005-0.366,0.009c0-0.29,0-0.581,0-0.871
		C13.643,63.766,13.514,64.16,13.454,64.524z"/>
	<path display="inline" fill="#A0A0A0" d="M13.088,66.275c0.12,0.005,0.241,0.008,0.361,0.008c0.065,0.365,0.193,0.757-0.361,0.863
		C13.088,66.856,13.088,66.566,13.088,66.275z"/>
</g>
</svg>
